<svg width="266" height="111" viewBox="0 0 266 111" fill="none" xmlns="http://www.w3.org/2000/svg">
<path d="M4.48 17.2H17.152V62H4.48V17.2ZM68.7915 17.2V62H58.3595L38.5835 38.128V62H26.1675V17.2H36.5995L56.3755 41.072V17.2H68.7915ZM113.186 62.768L108.13 58.288C106.039 59.7813 103.714 60.9333 101.154 61.744C98.594 62.512 95.906 62.896 93.09 62.896C89.7193 62.896 86.6687 62.3627 83.938 61.296C81.2073 60.1867 79.074 58.672 77.538 56.752C76.002 54.832 75.234 52.6773 75.234 50.288C75.234 47.472 75.9807 45.0187 77.474 42.928C78.9673 40.7947 81.3353 38.8533 84.578 37.104C81.7193 34.2027 80.29 31.1947 80.29 28.08C80.29 25.8187 80.9087 23.8133 82.146 22.064C83.3833 20.3147 85.1327 18.9707 87.394 18.032C89.698 17.0507 92.3433 16.56 95.33 16.56C99.4687 16.56 102.797 17.5413 105.314 19.504C107.874 21.424 109.154 24.0267 109.154 27.312C109.154 29.616 108.471 31.664 107.106 33.456C105.783 35.248 103.693 36.9333 100.834 38.512L107.362 44.336C108.215 42.4587 108.877 40.3253 109.346 37.936L119.138 40.88C118.285 44.72 116.898 48.112 114.978 51.056L119.714 55.28L113.186 62.768ZM95.33 24.56C94.0927 24.56 93.1113 24.88 92.386 25.52C91.7033 26.1173 91.362 26.9067 91.362 27.888C91.362 28.6133 91.554 29.3173 91.938 30C92.3647 30.64 93.1327 31.4933 94.242 32.56C95.9487 31.664 97.1433 30.832 97.826 30.064C98.5513 29.2533 98.914 28.4213 98.914 27.568C98.914 26.6293 98.594 25.904 97.954 25.392C97.3567 24.8373 96.482 24.56 95.33 24.56ZM93.986 53.616C96.4607 53.616 98.7433 52.9973 100.834 51.76L91.17 43.184C89.762 44.0373 88.738 44.9333 88.098 45.872C87.458 46.768 87.138 47.792 87.138 48.944C87.138 50.3093 87.7567 51.44 88.994 52.336C90.2313 53.1893 91.8953 53.616 93.986 53.616ZM148.447 62.896C143.711 62.896 139.444 61.8933 135.647 59.888C131.892 57.8827 128.927 55.1093 126.751 51.568C124.618 48.0267 123.551 44.0373 123.551 39.6C123.551 35.1627 124.618 31.1733 126.751 27.632C128.927 24.0907 131.892 21.3173 135.647 19.312C139.444 17.3067 143.711 16.304 148.447 16.304C153.183 16.304 157.428 17.3067 161.183 19.312C164.98 21.3173 167.946 24.0907 170.079 27.632C172.255 31.1733 173.343 35.1627 173.343 39.6C173.343 44.0373 172.255 48.0267 170.079 51.568C167.946 55.1093 164.98 57.8827 161.183 59.888C157.428 61.8933 153.183 62.896 148.447 62.896ZM148.447 52.4C150.708 52.4 152.756 51.8667 154.591 50.8C156.426 49.7333 157.876 48.24 158.943 46.32C160.01 44.3573 160.543 42.1173 160.543 39.6C160.543 37.0827 160.01 34.864 158.943 32.944C157.876 30.9813 156.426 29.4667 154.591 28.4C152.756 27.3333 150.708 26.8 148.447 26.8C146.186 26.8 144.138 27.3333 142.303 28.4C140.468 29.4667 139.018 30.9813 137.951 32.944C136.884 34.864 136.351 37.0827 136.351 39.6C136.351 42.1173 136.884 44.3573 137.951 46.32C139.018 48.24 140.468 49.7333 142.303 50.8C144.138 51.8667 146.186 52.4 148.447 52.4ZM200.652 62.896C193.996 62.896 188.812 61.0827 185.1 57.456C181.431 53.8293 179.596 48.688 179.596 42.032V17.2H192.268V41.648C192.268 48.816 195.105 52.4 200.78 52.4C206.412 52.4 209.228 48.816 209.228 41.648V17.2H221.708V42.032C221.708 48.688 219.852 53.8293 216.14 57.456C212.471 61.0827 207.308 62.896 200.652 62.896ZM239.141 27.248H225.381V17.2H265.509V27.248H251.813V62H239.141V27.248Z" fill="white"/>
<path d="M30.848 92.064H4.8V88.16H15.2V86.4C12.7253 86.08 10.7733 85.376 9.344 84.288C7.936 83.1787 7.232 81.888 7.232 80.416C7.232 78.7093 8.192 77.2693 10.112 76.096C12.032 74.9013 14.592 74.304 17.792 74.304C20.992 74.304 23.5627 74.9013 25.504 76.096C27.4453 77.2693 28.416 78.7093 28.416 80.416C28.416 81.9093 27.6693 83.2213 26.176 84.352C24.704 85.4613 22.7093 86.1547 20.192 86.432V88.16H30.848V92.064ZM28.224 102.016H7.648V93.728H12.704V98.144H28.224V102.016ZM17.792 78.336C16.2347 78.336 14.9867 78.5493 14.048 78.976C13.1307 79.3813 12.672 79.8827 12.672 80.48C12.672 81.0987 13.1307 81.6107 14.048 82.016C14.9867 82.4213 16.2453 82.624 17.824 82.624C19.4027 82.624 20.6507 82.4213 21.568 82.016C22.4853 81.6107 22.944 81.0987 22.944 80.48C22.944 79.8827 22.4747 79.3813 21.536 78.976C20.6187 78.5493 19.3707 78.336 17.792 78.336ZM48.7435 91.328L49.1915 95.296C46.6102 95.9573 42.3008 96.288 36.2635 96.288C35.3462 96.288 34.4822 96.256 33.6715 96.192V83.68H42.0235V80.032H33.6715V76.16H47.0795V87.52H38.7275V92.096C42.4182 92.1813 45.7568 91.9253 48.7435 91.328ZM58.9195 88.512H55.3355V102.656H50.3755V73.856H55.3355V84.448H58.9195V88.512ZM68.943 79.872C68.0043 79.872 67.247 80.16 66.671 80.736C66.095 81.2907 65.807 82.0587 65.807 83.04C65.807 84 66.0843 84.7573 66.639 85.312C67.215 85.8453 67.9723 86.112 68.911 86.112C69.8283 86.112 70.5857 85.8347 71.183 85.28C71.7803 84.7253 72.079 83.968 72.079 83.008C72.079 82.048 71.7803 81.2907 71.183 80.736C70.607 80.16 69.8603 79.872 68.943 79.872ZM68.943 75.68C71.247 75.68 73.1563 76.3733 74.671 77.76C76.207 79.1253 76.975 80.8853 76.975 83.04C76.975 85.1947 76.207 86.9547 74.671 88.32C73.1563 89.6853 71.2363 90.368 68.911 90.368C66.607 90.368 64.6977 89.6853 63.183 88.32C61.6683 86.9333 60.911 85.1627 60.911 83.008C60.911 80.8747 61.6683 79.1253 63.183 77.76C64.6977 76.3733 66.6177 75.68 68.943 75.68ZM85.135 101.696H64.271V92.16H69.327V97.792H85.135V101.696ZM84.431 94.56H79.375V73.856H84.431V94.56ZM122.317 90.336H111.661V91.328H119.309V98.432H104.109V99.296H119.981V102.464H99.0528V95.456H114.221V94.496H99.0528V91.328H106.669V90.336H96.2688V86.752H122.317V90.336ZM119.949 81.28H113.357C114.658 82.24 117.037 82.72 120.493 82.72H121.037L119.373 86.112H118.701C116.631 86.112 114.733 85.8453 113.005 85.312C111.298 84.7573 110.061 84.032 109.293 83.136C108.503 84.0533 107.245 84.7787 105.517 85.312C103.81 85.8453 101.847 86.112 99.6288 86.112H99.1168L97.4848 82.56H98.1248C101.517 82.56 103.863 82.1333 105.165 81.28H98.6688V77.92H119.949V81.28ZM114.221 77.312H104.301V73.92H114.221V77.312ZM150.42 88.288H146.804V102.656H141.844V73.856H146.804V84.192H150.42V88.288ZM138.324 84.064V88.032H130.036V92.448C133.599 92.5333 136.959 92.3093 140.116 91.776L140.564 95.648C137.492 96.2027 133.002 96.48 127.092 96.48H125.044V76.16H138.644V80.032H130.036V84.064H138.324ZM152.348 79.808V75.712H167.964V79.808H162.844C162.993 81.6 163.612 83.008 164.7 84.032C165.788 85.0347 167.238 85.824 169.052 86.4L166.332 90.368C165.158 90.0267 163.985 89.408 162.812 88.512C161.66 87.616 160.828 86.592 160.316 85.44C159.91 86.6987 159.046 87.9147 157.724 89.088C156.422 90.24 155.089 91.0187 153.724 91.424L151.132 87.424C155.185 86.1867 157.35 83.648 157.628 79.808H152.348ZM169.564 96.704C169.564 95.36 167.836 94.688 164.38 94.688C160.924 94.688 159.196 95.36 159.196 96.704C159.196 97.984 160.924 98.624 164.38 98.624C167.836 98.624 169.564 97.984 169.564 96.704ZM174.908 96.704C174.908 98.4747 173.958 99.8613 172.06 100.864C170.182 101.888 167.622 102.4 164.38 102.4C161.158 102.4 158.598 101.888 156.7 100.864C154.801 99.84 153.852 98.4533 153.852 96.704C153.852 94.8907 154.79 93.472 156.668 92.448C158.566 91.4027 161.137 90.88 164.38 90.88C167.644 90.88 170.214 91.392 172.092 92.416C173.969 93.44 174.908 94.8693 174.908 96.704ZM178.044 84.864H174.524V90.912H169.5V73.856H174.524V80.832H178.044V84.864ZM194.595 89.728H180.387V75.488H185.411V78.88H189.539V75.52H194.595V77.632H198.659V73.856H203.715V91.04H198.659V87.424H194.595V89.728ZM203.555 96.8C203.555 98.528 202.638 99.904 200.803 100.928C198.99 101.952 196.483 102.464 193.283 102.464C190.126 102.464 187.641 101.952 185.827 100.928C184.014 99.904 183.107 98.528 183.107 96.8C183.107 95.008 184.003 93.6 185.795 92.576C187.609 91.5307 190.105 91.008 193.283 91.008C196.505 91.008 199.022 91.5307 200.835 92.576C202.649 93.6 203.555 95.008 203.555 96.8ZM193.283 94.752C191.79 94.752 190.585 94.9547 189.667 95.36C188.771 95.744 188.323 96.224 188.323 96.8C188.323 97.3333 188.771 97.792 189.667 98.176C190.585 98.5387 191.79 98.72 193.283 98.72C194.819 98.72 196.035 98.5387 196.931 98.176C197.849 97.792 198.307 97.3333 198.307 96.8C198.307 96.224 197.859 95.744 196.963 95.36C196.067 94.9547 194.841 94.752 193.283 94.752ZM189.539 85.856V82.688H185.411V85.856H189.539ZM198.659 81.408H194.595V83.648H198.659V81.408ZM213.099 88.736C213.099 89.2693 213.323 89.7067 213.771 90.048C214.219 90.368 214.763 90.528 215.403 90.528C216.064 90.528 216.608 90.368 217.035 90.048C217.483 89.728 217.707 89.2907 217.707 88.736C217.707 88.1813 217.483 87.744 217.035 87.424C216.608 87.0827 216.064 86.912 215.403 86.912C214.763 86.912 214.219 87.0827 213.771 87.424C213.323 87.744 213.099 88.1813 213.099 88.736ZM222.155 88.736C222.155 90.272 221.515 91.5733 220.235 92.64C218.976 93.6853 217.365 94.208 215.403 94.208C213.419 94.208 211.787 93.6853 210.507 92.64C209.227 91.5733 208.587 90.272 208.587 88.736C208.587 87.2427 209.227 85.9733 210.507 84.928C211.787 83.8613 213.419 83.328 215.403 83.328C217.365 83.328 218.976 83.8613 220.235 84.928C221.515 85.9733 222.155 87.2427 222.155 88.736ZM223.083 82.816H207.371V78.976H223.083V82.816ZM219.499 78.016H211.339V74.432H219.499V78.016ZM231.947 102.368H211.179V95.168H216.235V98.464H231.947V102.368ZM223.691 85.28V81.152H226.347V73.856H231.403V95.68H226.347V91.456H223.691V87.36H226.347V85.28H223.691ZM251.89 89.6L252.21 93.12C250.056 93.376 247.048 93.5787 243.186 93.728C240.626 93.856 237.81 93.92 234.738 93.92L234.258 90.112C236.05 90.176 238.184 90.208 240.658 90.208V89.472C239.272 89.1947 238.173 88.7253 237.362 88.064C236.552 87.4027 236.146 86.624 236.146 85.728C236.146 84.6187 236.797 83.6907 238.098 82.944C239.421 82.1973 241.128 81.824 243.218 81.824C245.288 81.824 246.984 82.1973 248.306 82.944C249.629 83.6907 250.29 84.6187 250.29 85.728C250.29 86.624 249.885 87.4027 249.074 88.064C248.264 88.7253 247.165 89.1947 245.778 89.472V90.08C248.552 89.9093 250.589 89.7493 251.89 89.6ZM258.162 98.496C258.162 99.7547 257.32 100.8 255.634 101.632C253.97 102.464 251.4 102.88 247.922 102.88C244.36 102.88 241.714 102.464 239.986 101.632C238.28 100.8 237.426 99.7547 237.426 98.496C237.426 97.28 238.28 96.256 239.986 95.424C241.714 94.592 244.381 94.176 247.986 94.176C251.464 94.176 254.024 94.592 255.666 95.424C257.33 96.2347 258.162 97.2587 258.162 98.496ZM261.106 86.848H258.098V94.112H253.138V73.856H258.098V82.752H261.106V86.848ZM251.442 81.504H235.122V78.016H251.442V81.504ZM247.474 77.312H239.41V73.984H247.474V77.312ZM247.922 97.632C244.552 97.632 242.866 97.9307 242.866 98.528C242.866 99.104 244.552 99.392 247.922 99.392C251.165 99.392 252.786 99.104 252.786 98.528C252.786 97.9307 251.165 97.632 247.922 97.632ZM243.25 84.736C241.693 84.736 240.914 85.0667 240.914 85.728C240.914 86.3893 241.693 86.72 243.25 86.72C244.786 86.72 245.554 86.3893 245.554 85.728C245.554 85.0667 244.786 84.736 243.25 84.736Z" fill="white"/>
</svg>
