<svg width="18" height="16" viewBox="0 0 18 16" fill="none" xmlns="http://www.w3.org/2000/svg">
<rect width="16" height="16" transform="translate(1)" fill="#D9D9D9"/>
<path d="M3.80403 4.96166C3.84752 4.74824 4.15248 4.74824 4.19597 4.96166L4.45744 6.24471C4.48725 6.39099 4.661 6.45423 4.77786 6.36133L5.80288 5.54653C5.97338 5.411 6.207 5.60702 6.10313 5.79847L5.4787 6.9494C5.40751 7.08062 5.49996 7.24075 5.64919 7.24471L6.95815 7.2794C7.17588 7.28517 7.22883 7.5855 7.02621 7.66539L5.80806 8.14568C5.66918 8.20044 5.63707 8.38254 5.74885 8.48149L6.72926 9.34945C6.89234 9.49383 6.73986 9.75793 6.53329 9.68889L5.29141 9.2738C5.14982 9.22647 5.00818 9.34533 5.0302 9.49298L5.22333 10.7881C5.25545 11.0035 4.96888 11.1078 4.85502 10.9221L4.17049 9.80589C4.09245 9.67863 3.90755 9.67863 3.82951 9.80589L3.14498 10.9221C3.03112 11.1078 2.74455 11.0035 2.77667 10.7881L2.9698 9.49298C2.99182 9.34533 2.85018 9.22647 2.70859 9.2738L1.46671 9.68889C1.26014 9.75793 1.10766 9.49383 1.27074 9.34945L2.25115 8.48149C2.36293 8.38254 2.33082 8.20044 2.19194 8.14568L0.973792 7.66539C0.771168 7.5855 0.824125 7.28517 1.04185 7.2794L2.35081 7.24471C2.50004 7.24075 2.59249 7.08062 2.5213 6.9494L1.89687 5.79847C1.793 5.60702 2.02662 5.411 2.19712 5.54653L3.22214 6.36133C3.339 6.45423 3.51275 6.39099 3.54256 6.24471L3.80403 4.96166Z" fill="black"/>
<path d="M8.80403 4.96166C8.84752 4.74824 9.15248 4.74824 9.19597 4.96166L9.45744 6.24471C9.48725 6.39099 9.661 6.45423 9.77786 6.36133L10.8029 5.54653C10.9734 5.411 11.207 5.60702 11.1031 5.79847L10.4787 6.9494C10.4075 7.08062 10.5 7.24075 10.6492 7.24471L11.9581 7.2794C12.1759 7.28517 12.2288 7.5855 12.0262 7.66539L10.8081 8.14568C10.6692 8.20044 10.6371 8.38254 10.7488 8.48149L11.7293 9.34945C11.8923 9.49383 11.7399 9.75793 11.5333 9.68889L10.2914 9.2738C10.1498 9.22647 10.0082 9.34533 10.0302 9.49298L10.2233 10.7881C10.2555 11.0035 9.96888 11.1078 9.85502 10.9221L9.17049 9.80589C9.09245 9.67863 8.90755 9.67863 8.82951 9.80589L8.14498 10.9221C8.03112 11.1078 7.74455 11.0035 7.77667 10.7881L7.9698 9.49298C7.99182 9.34533 7.85018 9.22647 7.70859 9.2738L6.46671 9.68889C6.26014 9.75793 6.10766 9.49383 6.27074 9.34945L7.25115 8.48149C7.36293 8.38254 7.33082 8.20044 7.19194 8.14568L5.97379 7.66539C5.77117 7.5855 5.82412 7.28517 6.04185 7.2794L7.35081 7.24471C7.50004 7.24075 7.59249 7.08062 7.5213 6.9494L6.89687 5.79847C6.793 5.60702 7.02662 5.411 7.19712 5.54653L8.22214 6.36133C8.339 6.45423 8.51275 6.39099 8.54256 6.24471L8.80403 4.96166Z" fill="black"/>
<path d="M13.804 4.96166C13.8475 4.74824 14.1525 4.74824 14.196 4.96166L14.4574 6.24471C14.4872 6.39099 14.661 6.45423 14.7779 6.36133L15.8029 5.54653C15.9734 5.411 16.207 5.60702 16.1031 5.79847L15.4787 6.9494C15.4075 7.08062 15.5 7.24075 15.6492 7.24471L16.9581 7.2794C17.1759 7.28517 17.2288 7.5855 17.0262 7.66539L15.8081 8.14568C15.6692 8.20044 15.6371 8.38254 15.7488 8.48149L16.7293 9.34945C16.8923 9.49383 16.7399 9.75793 16.5333 9.68889L15.2914 9.2738C15.1498 9.22647 15.0082 9.34533 15.0302 9.49298L15.2233 10.7881C15.2555 11.0035 14.9689 11.1078 14.855 10.9221L14.1705 9.80589C14.0925 9.67863 13.9075 9.67863 13.8295 9.80589L13.145 10.9221C13.0311 11.1078 12.7445 11.0035 12.7767 10.7881L12.9698 9.49298C12.9918 9.34533 12.8502 9.22647 12.7086 9.2738L11.4667 9.68889C11.2601 9.75793 11.1077 9.49383 11.2707 9.34945L12.2512 8.48149C12.3629 8.38254 12.3308 8.20044 12.1919 8.14568L10.9738 7.66539C10.7712 7.5855 10.8241 7.28517 11.0419 7.2794L12.3508 7.24471C12.5 7.24075 12.5925 7.08062 12.5213 6.9494L11.8969 5.79847C11.793 5.60702 12.0266 5.411 12.1971 5.54653L13.2221 6.36133C13.339 6.45423 13.5128 6.39099 13.5426 6.24471L13.804 4.96166Z" fill="black"/>
</svg>
