<svg width="16" height="16" viewBox="0 0 16 16" fill="none" xmlns="http://www.w3.org/2000/svg">
<rect width="16" height="16" fill="#D9D9D9"/>
<path d="M4.80403 4.96166C4.84752 4.74824 5.15248 4.74824 5.19597 4.96166L5.45744 6.24471C5.48725 6.39099 5.661 6.45423 5.77786 6.36133L6.80288 5.54653C6.97338 5.411 7.207 5.60702 7.10313 5.79847L6.4787 6.9494C6.40751 7.08062 6.49996 7.24075 6.64919 7.24471L7.95815 7.2794C8.17588 7.28517 8.22883 7.5855 8.02621 7.66539L6.80806 8.14568C6.66918 8.20044 6.63707 8.38254 6.74885 8.48149L7.72926 9.34945C7.89234 9.49383 7.73986 9.75793 7.53329 9.68889L6.29141 9.2738C6.14982 9.22647 6.00818 9.34533 6.0302 9.49298L6.22333 10.7881C6.25545 11.0035 5.96888 11.1078 5.85502 10.9221L5.17049 9.80589C5.09245 9.67863 4.90755 9.67863 4.82951 9.80589L4.14498 10.9221C4.03112 11.1078 3.74455 11.0035 3.77667 10.7881L3.9698 9.49298C3.99182 9.34533 3.85018 9.22647 3.70859 9.2738L2.46671 9.68889C2.26014 9.75793 2.10766 9.49383 2.27074 9.34945L3.25115 8.48149C3.36293 8.38254 3.33082 8.20044 3.19194 8.14568L1.97379 7.66539C1.77117 7.5855 1.82412 7.28517 2.04185 7.2794L3.35081 7.24471C3.50004 7.24075 3.59249 7.08062 3.5213 6.9494L2.89687 5.79847C2.793 5.60702 3.02662 5.411 3.19712 5.54653L4.22214 6.36133C4.339 6.45423 4.51275 6.39099 4.54256 6.24471L4.80403 4.96166Z" fill="black"/>
<path d="M10.804 4.96166C10.8475 4.74824 11.1525 4.74824 11.196 4.96166L11.4574 6.24471C11.4872 6.39099 11.661 6.45423 11.7779 6.36133L12.8029 5.54653C12.9734 5.411 13.207 5.60702 13.1031 5.79847L12.4787 6.9494C12.4075 7.08062 12.5 7.24075 12.6492 7.24471L13.9581 7.2794C14.1759 7.28517 14.2288 7.5855 14.0262 7.66539L12.8081 8.14568C12.6692 8.20044 12.6371 8.38254 12.7488 8.48149L13.7293 9.34945C13.8923 9.49383 13.7399 9.75793 13.5333 9.68889L12.2914 9.2738C12.1498 9.22647 12.0082 9.34533 12.0302 9.49298L12.2233 10.7881C12.2555 11.0035 11.9689 11.1078 11.855 10.9221L11.1705 9.80589C11.0925 9.67863 10.9075 9.67863 10.8295 9.80589L10.145 10.9221C10.0311 11.1078 9.74455 11.0035 9.77667 10.7881L9.9698 9.49298C9.99182 9.34533 9.85018 9.22647 9.70859 9.2738L8.46671 9.68889C8.26014 9.75793 8.10766 9.49383 8.27074 9.34945L9.25115 8.48149C9.36293 8.38254 9.33082 8.20044 9.19194 8.14568L7.97379 7.66539C7.77117 7.5855 7.82412 7.28517 8.04185 7.2794L9.35081 7.24471C9.50004 7.24075 9.59249 7.08062 9.5213 6.9494L8.89687 5.79847C8.793 5.60702 9.02662 5.411 9.19712 5.54653L10.2221 6.36133C10.339 6.45423 10.5128 6.39099 10.5426 6.24471L10.804 4.96166Z" fill="black"/>
</svg>
