<svg width="16" height="16" viewBox="0 0 16 16" fill="none" xmlns="http://www.w3.org/2000/svg">
<rect width="16" height="16" fill="#D9D9D9"/>
<path d="M7.80403 4.96166C7.84752 4.74824 8.15248 4.74824 8.19597 4.96166L8.45744 6.24471C8.48725 6.39099 8.661 6.45423 8.77786 6.36133L9.80288 5.54653C9.97338 5.411 10.207 5.60702 10.1031 5.79847L9.4787 6.9494C9.40751 7.08062 9.49996 7.24075 9.64919 7.24471L10.9581 7.2794C11.1759 7.28517 11.2288 7.5855 11.0262 7.66539L9.80806 8.14568C9.66918 8.20044 9.63707 8.38254 9.74885 8.48149L10.7293 9.34945C10.8923 9.49383 10.7399 9.75793 10.5333 9.68889L9.29141 9.2738C9.14982 9.22647 9.00818 9.34533 9.0302 9.49298L9.22333 10.7881C9.25545 11.0035 8.96888 11.1078 8.85502 10.9221L8.17049 9.80589C8.09245 9.67863 7.90755 9.67863 7.82951 9.80589L7.14498 10.9221C7.03112 11.1078 6.74455 11.0035 6.77667 10.7881L6.9698 9.49298C6.99182 9.34533 6.85018 9.22647 6.70859 9.2738L5.46671 9.68889C5.26014 9.75793 5.10766 9.49383 5.27074 9.34945L6.25115 8.48149C6.36293 8.38254 6.33082 8.20044 6.19194 8.14568L4.97379 7.66539C4.77117 7.5855 4.82412 7.28517 5.04185 7.2794L6.35081 7.24471C6.50004 7.24075 6.59249 7.08062 6.5213 6.9494L5.89687 5.79847C5.793 5.60702 6.02662 5.411 6.19712 5.54653L7.22214 6.36133C7.339 6.45423 7.51275 6.39099 7.54256 6.24471L7.80403 4.96166Z" fill="black"/>
</svg>
