<svg width="16" height="16" viewBox="0 0 16 16" fill="none" xmlns="http://www.w3.org/2000/svg">
<rect width="16" height="16" fill="#D9D9D9"/>
<path d="M8 1.5L8.44903 2.88197H9.90211L8.72654 3.73607L9.17557 5.11803L8 4.26393L6.82443 5.11803L7.27346 3.73607L6.09789 2.88197H7.55097L8 1.5Z" fill="black"/>
<path d="M2.00043 5.37634L2 3.5L8 6.62489L14 3.5V5.37634L8 8.5L2.00043 5.37634Z" fill="black"/>
<path d="M2.00043 8.37634L2 6.5L8 9.62489L14 6.5V8.37634L8 11.5L2.00043 8.37634Z" fill="black"/>
<path d="M2.00043 11.3763L2 9.5L8 12.6249L14 9.5V11.3763L8 14.5L2.00043 11.3763Z" fill="black"/>
</svg>
